<svg id="Layer_1" data-name="Layer 1" xmlns="http://www.w3.org/2000/svg" viewBox="0 0 252 144"><rect x="113.04" y="36" width="2.88" height="2.88"/><rect x="118.8" y="36" width="2.88" height="2.88"/><rect x="121.68" y="36" width="2.88" height="2.88"/><rect x="124.56" y="36" width="2.88" height="2.88"/><rect x="127.44" y="36" width="2.88" height="2.88"/><rect x="127.44" y="38.88" width="2.88" height="2.88"/><rect x="113.04" y="41.76" width="2.88" height="2.88"/><rect x="115.92" y="41.76" width="2.88" height="2.88"/><rect x="118.8" y="41.76" width="2.88" height="2.88"/><rect x="121.68" y="41.76" width="2.88" height="2.88"/><rect x="127.44" y="41.76" width="2.88" height="2.88"/><rect x="130.32" y="41.76" width="2.88" height="2.88"/><rect x="115.92" y="44.64" width="2.88" height="2.88"/><rect x="121.68" y="44.64" width="2.88" height="2.88"/><rect x="127.44" y="44.64" width="2.88" height="2.88"/><rect x="130.32" y="44.64" width="2.88" height="2.88"/><rect x="136.08" y="44.64" width="2.88" height="2.88"/><rect x="115.92" y="47.52" width="2.88" height="2.88"/><rect x="118.8" y="47.52" width="2.88" height="2.88"/><rect x="121.68" y="47.52" width="2.88" height="2.88"/><rect x="124.56" y="47.52" width="2.88" height="2.88"/><rect x="127.44" y="47.52" width="2.88" height="2.88"/><rect x="113.04" y="50.4" width="2.88" height="2.88"/><rect x="115.92" y="50.4" width="2.88" height="2.88"/><rect x="121.68" y="50.4" width="2.88" height="2.88"/><rect x="127.44" y="50.4" width="2.88" height="2.88"/><rect x="113.04" y="53.28" width="2.88" height="2.88"/><rect x="118.8" y="53.28" width="2.88" height="2.88"/><rect x="124.56" y="53.28" width="2.88" height="2.88"/><rect x="130.32" y="53.28" width="2.88" height="2.88"/><rect x="136.08" y="53.28" width="2.88" height="2.88"/><rect x="121.68" y="56.16" width="2.88" height="2.88"/><rect x="130.32" y="56.16" width="2.88" height="2.88"/><rect x="136.08" y="56.16" width="2.88" height="2.88"/><rect x="90" y="59.04" width="2.88" height="2.88"/><rect x="95.76" y="59.04" width="2.88" height="2.88"/><rect x="107.28" y="59.04" width="2.88" height="2.88"/><rect x="110.16" y="59.04" width="2.88" height="2.88"/><rect x="115.92" y="59.04" width="2.88" height="2.88"/><rect x="118.8" y="59.04" width="2.88" height="2.88"/><rect x="124.56" y="59.04" width="2.88" height="2.88"/><rect x="130.32" y="59.04" width="2.88" height="2.88"/><rect x="133.2" y="59.04" width="2.88" height="2.88"/><rect x="144.72" y="59.04" width="2.88" height="2.88"/><rect x="153.36" y="59.04" width="2.88" height="2.88"/><rect x="159.12" y="59.04" width="2.88" height="2.88"/><rect x="95.76" y="61.92" width="2.88" height="2.88"/><rect x="98.64" y="61.92" width="2.88" height="2.88"/><rect x="104.4" y="61.92" width="2.88" height="2.88"/><rect x="110.16" y="61.92" width="2.88" height="2.88"/><rect x="115.92" y="61.92" width="2.88" height="2.88"/><rect x="127.44" y="61.92" width="2.88" height="2.88"/><rect x="133.2" y="61.92" width="2.88" height="2.88"/><rect x="136.08" y="61.92" width="2.88" height="2.88"/><rect x="141.84" y="61.92" width="2.88" height="2.88"/><rect x="144.72" y="61.92" width="2.88" height="2.88"/><rect x="150.48" y="61.92" width="2.88" height="2.88"/><rect x="156.24" y="61.92" width="2.88" height="2.88"/><rect x="159.12" y="61.92" width="2.88" height="2.88"/><rect x="90" y="64.8" width="2.88" height="2.88"/><rect x="92.88" y="64.8" width="2.88" height="2.88"/><rect x="98.64" y="64.8" width="2.88" height="2.88"/><rect x="101.52" y="64.8" width="2.88" height="2.88"/><rect x="107.28" y="64.8" width="2.88" height="2.88"/><rect x="113.04" y="64.8" width="2.88" height="2.88"/><rect x="115.92" y="64.8" width="2.88" height="2.88"/><rect x="121.68" y="64.8" width="2.88" height="2.88"/><rect x="133.2" y="64.8" width="2.88" height="2.88"/><rect x="136.08" y="64.8" width="2.88" height="2.88"/><rect x="138.96" y="64.8" width="2.88" height="2.88"/><rect x="141.84" y="64.8" width="2.88" height="2.88"/><rect x="150.48" y="64.8" width="2.88" height="2.88"/><rect x="153.36" y="64.8" width="2.88" height="2.88"/><rect x="159.12" y="64.8" width="2.88" height="2.88"/><rect x="98.64" y="67.68" width="2.88" height="2.88"/><rect x="101.52" y="67.68" width="2.88" height="2.88"/><rect x="113.04" y="67.68" width="2.88" height="2.88"/><rect x="115.92" y="67.68" width="2.88" height="2.88"/><rect x="121.68" y="67.68" width="2.88" height="2.88"/><rect x="124.56" y="67.68" width="2.88" height="2.88"/><rect x="136.08" y="67.68" width="2.88" height="2.88"/><rect x="138.96" y="67.68" width="2.88" height="2.88"/><rect x="141.84" y="67.68" width="2.88" height="2.88"/><rect x="150.48" y="67.68" width="2.88" height="2.88"/><rect x="98.64" y="70.56" width="2.88" height="2.88"/><rect x="107.28" y="70.56" width="2.88" height="2.88"/><rect x="110.16" y="70.56" width="2.88" height="2.88"/><rect x="113.04" y="70.56" width="2.88" height="2.88"/><rect x="115.92" y="70.56" width="2.88" height="2.88"/><rect x="121.68" y="70.56" width="2.88" height="2.88"/><rect x="124.56" y="70.56" width="2.88" height="2.88"/><rect x="133.2" y="70.56" width="2.88" height="2.88"/><rect x="141.84" y="70.56" width="2.88" height="2.88"/><rect x="159.12" y="70.56" width="2.88" height="2.88"/><rect x="92.88" y="73.44" width="2.88" height="2.88"/><rect x="98.64" y="73.44" width="2.88" height="2.88"/><rect x="110.16" y="73.44" width="2.88" height="2.88"/><rect x="113.04" y="73.44" width="2.88" height="2.88"/><rect x="118.8" y="73.44" width="2.88" height="2.88"/><rect x="124.56" y="73.44" width="2.88" height="2.88"/><rect x="133.2" y="73.44" width="2.88" height="2.88"/><rect x="136.08" y="73.44" width="2.88" height="2.88"/><rect x="141.84" y="73.44" width="2.88" height="2.88"/><rect x="144.72" y="73.44" width="2.88" height="2.88"/><rect x="156.24" y="73.44" width="2.88" height="2.88"/><rect x="159.12" y="73.44" width="2.88" height="2.88"/><rect x="90" y="76.32" width="2.88" height="2.88"/><rect x="92.88" y="76.32" width="2.88" height="2.88"/><rect x="95.76" y="76.32" width="2.88" height="2.88"/><rect x="98.64" y="76.32" width="2.88" height="2.88"/><rect x="107.28" y="76.32" width="2.88" height="2.88"/><rect x="110.16" y="76.32" width="2.88" height="2.88"/><rect x="124.56" y="76.32" width="2.88" height="2.88"/><rect x="130.32" y="76.32" width="2.88" height="2.88"/><rect x="133.2" y="76.32" width="2.88" height="2.88"/><rect x="138.96" y="76.32" width="2.88" height="2.88"/><rect x="141.84" y="76.32" width="2.88" height="2.88"/><rect x="150.48" y="76.32" width="2.88" height="2.88"/><rect x="153.36" y="76.32" width="2.88" height="2.88"/><rect x="159.12" y="76.32" width="2.88" height="2.88"/><rect x="95.76" y="79.2" width="2.88" height="2.88"/><rect x="110.16" y="79.2" width="2.88" height="2.88"/><rect x="118.8" y="79.2" width="2.88" height="2.88"/><rect x="121.68" y="79.2" width="2.88" height="2.88"/><rect x="124.56" y="79.2" width="2.88" height="2.88"/><rect x="130.32" y="79.2" width="2.88" height="2.88"/><rect x="136.08" y="79.2" width="2.88" height="2.88"/><rect x="138.96" y="79.2" width="2.88" height="2.88"/><rect x="144.72" y="79.2" width="2.88" height="2.88"/><rect x="147.6" y="79.2" width="2.88" height="2.88"/><rect x="150.48" y="79.2" width="2.88" height="2.88"/><rect x="90" y="82.08" width="2.88" height="2.88"/><rect x="92.88" y="82.08" width="2.88" height="2.88"/><rect x="95.76" y="82.08" width="2.88" height="2.88"/><rect x="98.64" y="82.08" width="2.88" height="2.88"/><rect x="101.52" y="82.08" width="2.88" height="2.88"/><rect x="107.28" y="82.08" width="2.88" height="2.88"/><rect x="110.16" y="82.08" width="2.88" height="2.88"/><rect x="113.04" y="82.08" width="2.88" height="2.88"/><rect x="118.8" y="82.08" width="2.88" height="2.88"/><rect x="136.08" y="82.08" width="2.88" height="2.88"/><rect x="138.96" y="82.08" width="2.88" height="2.88"/><rect x="141.84" y="82.08" width="2.88" height="2.88"/><rect x="144.72" y="82.08" width="2.88" height="2.88"/><rect x="147.6" y="82.08" width="2.88" height="2.88"/><rect x="156.24" y="82.08" width="2.88" height="2.88"/><rect x="113.04" y="84.96" width="2.88" height="2.88"/><rect x="115.92" y="84.96" width="2.88" height="2.88"/><rect x="118.8" y="84.96" width="2.88" height="2.88"/><rect x="127.44" y="84.96" width="2.88" height="2.88"/><rect x="136.08" y="84.96" width="2.88" height="2.88"/><rect x="147.6" y="84.96" width="2.88" height="2.88"/><rect x="159.12" y="84.96" width="2.88" height="2.88"/><rect x="113.04" y="87.84" width="2.88" height="2.88"/><rect x="115.92" y="87.84" width="2.88" height="2.88"/><rect x="118.8" y="87.84" width="2.88" height="2.88"/><rect x="121.68" y="87.84" width="2.88" height="2.88"/><rect x="136.08" y="87.84" width="2.88" height="2.88"/><rect x="141.84" y="87.84" width="2.88" height="2.88"/><rect x="147.6" y="87.84" width="2.88" height="2.88"/><rect x="159.12" y="87.84" width="2.88" height="2.88"/><rect x="118.8" y="90.72" width="2.88" height="2.88"/><rect x="130.32" y="90.72" width="2.88" height="2.88"/><rect x="133.2" y="90.72" width="2.88" height="2.88"/><rect x="136.08" y="90.72" width="2.88" height="2.88"/><rect x="147.6" y="90.72" width="2.88" height="2.88"/><rect x="156.24" y="90.72" width="2.88" height="2.88"/><rect x="159.12" y="90.72" width="2.88" height="2.88"/><rect x="121.68" y="93.6" width="2.88" height="2.88"/><rect x="124.56" y="93.6" width="2.88" height="2.88"/><rect x="133.2" y="93.6" width="2.88" height="2.88"/><rect x="136.08" y="93.6" width="2.88" height="2.88"/><rect x="138.96" y="93.6" width="2.88" height="2.88"/><rect x="141.84" y="93.6" width="2.88" height="2.88"/><rect x="144.72" y="93.6" width="2.88" height="2.88"/><rect x="147.6" y="93.6" width="2.88" height="2.88"/><rect x="159.12" y="93.6" width="2.88" height="2.88"/><rect x="118.8" y="96.48" width="2.88" height="2.88"/><rect x="124.56" y="96.48" width="2.88" height="2.88"/><rect x="127.44" y="96.48" width="2.88" height="2.88"/><rect x="136.08" y="96.48" width="2.88" height="2.88"/><rect x="138.96" y="96.48" width="2.88" height="2.88"/><rect x="147.6" y="96.48" width="2.88" height="2.88"/><rect x="153.36" y="96.48" width="2.88" height="2.88"/><rect x="156.24" y="96.48" width="2.88" height="2.88"/><rect x="113.04" y="99.36" width="2.88" height="2.88"/><rect x="115.92" y="99.36" width="2.88" height="2.88"/><rect x="124.56" y="99.36" width="2.88" height="2.88"/><rect x="127.44" y="99.36" width="2.88" height="2.88"/><rect x="138.96" y="99.36" width="2.88" height="2.88"/><rect x="144.72" y="99.36" width="2.88" height="2.88"/><rect x="147.6" y="99.36" width="2.88" height="2.88"/><rect x="150.48" y="99.36" width="2.88" height="2.88"/><rect x="156.24" y="99.36" width="2.88" height="2.88"/><rect x="159.12" y="99.36" width="2.88" height="2.88"/><rect x="115.92" y="102.24" width="2.88" height="2.88"/><rect x="118.8" y="102.24" width="2.88" height="2.88"/><rect x="121.68" y="102.24" width="2.88" height="2.88"/><rect x="124.56" y="102.24" width="2.88" height="2.88"/><rect x="130.32" y="102.24" width="2.88" height="2.88"/><rect x="136.08" y="102.24" width="2.88" height="2.88"/><rect x="138.96" y="102.24" width="2.88" height="2.88"/><rect x="141.84" y="102.24" width="2.88" height="2.88"/><rect x="144.72" y="102.24" width="2.88" height="2.88"/><rect x="147.6" y="102.24" width="2.88" height="2.88"/><rect x="113.04" y="105.12" width="2.88" height="2.88"/><rect x="118.8" y="105.12" width="2.88" height="2.88"/><rect x="124.56" y="105.12" width="2.88" height="2.88"/><rect x="127.44" y="105.12" width="2.88" height="2.88"/><rect x="130.32" y="105.12" width="2.88" height="2.88"/><rect x="133.2" y="105.12" width="2.88" height="2.88"/><rect x="136.08" y="105.12" width="2.88" height="2.88"/><rect x="138.96" y="105.12" width="2.88" height="2.88"/><rect x="150.48" y="105.12" width="2.88" height="2.88"/><rect x="159.12" y="105.12" width="2.88" height="2.88"/><rect x="93.02" y="39.02" width="14.11" height="14.11" fill="none"/><path d="M107.14,36H90V56.16h20.16V36Zm0,17.14H93V39h14.12Z"/><rect x="144.86" y="39.02" width="14.11" height="14.11" fill="none"/><path d="M159,36H141.84V56.16H162V36Zm0,17.14H144.86V39H159Z"/><rect x="93.02" y="90.86" width="14.11" height="14.11" fill="none"/><path d="M107.14,87.84H90V108h20.16V87.84Zm0,17.14H93V90.86h14.12Z"/><rect x="95.76" y="41.76" width="8.64" height="8.64"/><rect x="147.6" y="41.76" width="8.64" height="8.64"/><rect x="95.76" y="93.6" width="8.64" height="8.64"/><polygon points="245.9 22.84 243.07 22.84 240.25 22.84 240.25 25.66 243.07 25.66 245.9 25.66 248.72 25.66 248.72 22.84 245.9 22.84"/><polygon points="228.96 25.66 231.78 25.66 234.6 25.66 234.6 22.84 234.6 20.01 234.6 17.19 234.6 14.37 237.43 14.37 237.43 17.19 237.43 20.01 240.25 20.01 243.07 20.01 245.9 20.01 245.9 17.19 245.9 14.37 245.9 11.54 245.9 8.72 245.9 5.9 245.9 3.07 243.07 3.07 240.25 3.07 237.43 3.07 234.6 3.07 234.6 5.9 237.43 5.9 240.25 5.9 243.07 5.9 243.07 8.72 243.07 11.54 243.07 14.37 243.07 17.19 240.25 17.19 240.25 14.37 240.25 11.54 237.43 11.54 234.6 11.54 231.78 11.54 231.78 14.37 231.78 17.19 231.78 20.01 231.78 22.84 228.96 22.84 226.13 22.84 226.13 20.01 226.13 17.19 226.13 14.37 226.13 11.54 226.13 8.72 226.13 5.9 226.13 3.07 223.31 3.07 223.31 5.9 223.31 8.72 223.31 11.54 223.31 14.37 223.31 17.19 223.31 20.01 223.31 22.84 223.31 25.66 226.13 25.66 228.96 25.66"/><polygon points="209.19 8.72 212.01 8.72 214.84 8.72 217.66 8.72 217.66 5.9 217.66 3.07 214.84 3.07 214.84 5.9 212.01 5.9 209.19 5.9 206.37 5.9 203.54 5.9 203.54 8.72 206.37 8.72 209.19 8.72"/><polygon points="209.19 14.37 212.01 14.37 214.84 14.37 217.66 14.37 217.66 11.54 214.84 11.54 212.01 11.54 209.19 11.54 206.37 11.54 203.54 11.54 203.54 14.37 206.37 14.37 209.19 14.37"/><polygon points="209.19 20.01 212.01 20.01 214.84 20.01 217.66 20.01 217.66 17.19 214.84 17.19 212.01 17.19 209.19 17.19 206.37 17.19 203.54 17.19 203.54 20.01 206.37 20.01 209.19 20.01"/><polygon points="203.54 25.66 206.37 25.66 209.19 25.66 212.01 25.66 212.01 22.84 209.19 22.84 206.37 22.84 203.54 22.84 200.72 22.84 200.72 20.01 200.72 17.19 200.72 14.37 200.72 11.54 200.72 8.72 200.72 5.9 200.72 3.07 197.9 3.07 197.9 5.9 197.9 8.72 197.9 11.54 197.9 14.37 197.9 17.19 197.9 20.01 197.9 22.84 197.9 25.66 200.72 25.66 203.54 25.66"/><polygon points="195.07 22.84 195.07 20.01 195.07 17.19 195.07 14.37 195.07 11.54 195.07 8.72 195.07 5.9 195.07 3.07 192.25 3.07 192.25 5.9 192.25 8.72 192.25 11.54 192.25 14.37 192.25 17.19 192.25 20.01 192.25 22.84 192.25 25.66 195.07 25.66 195.07 22.84"/><path d="M186.6,25.66h2.83V3.07H181V25.66h5.64ZM183.78,20V5.9h2.82V22.84h-2.82Z"/><polygon points="178.13 22.84 178.13 20.01 178.13 17.19 178.13 14.37 178.13 11.54 178.13 8.72 178.13 5.9 178.13 3.07 175.31 3.07 175.31 5.9 175.31 8.72 175.31 11.54 175.31 14.37 175.31 17.19 175.31 20.01 175.31 22.84 175.31 25.66 178.13 25.66 178.13 22.84"/><path d="M169.66,25.66h2.83V3.07H164V25.66h5.65ZM166.84,20V5.9h2.82V22.84h-2.82Z"/><polygon points="161.19 22.84 161.19 20.01 161.19 17.19 161.19 14.37 161.19 11.54 161.19 8.72 161.19 5.9 161.19 3.07 158.37 3.07 158.37 5.9 158.37 8.72 158.37 11.54 158.37 14.37 158.37 17.19 158.37 20.01 158.37 22.84 158.37 25.66 161.19 25.66 161.19 22.84"/><path d="M152.72,25.66h2.82V3.07h-8.47V25.66h5.65ZM149.9,20V5.9h2.82V22.84H149.9Z"/><polygon points="124.24 8.47 127.06 8.47 129.88 8.47 132.71 8.47 135.53 8.47 138.35 8.47 138.35 5.65 135.53 5.65 132.71 5.65 129.88 5.65 127.06 5.65 124.24 5.65 121.41 5.65 121.41 2.82 118.59 2.82 118.59 5.65 118.59 8.47 121.41 8.47 124.24 8.47"/><polygon points="141.18 11.29 138.35 11.29 135.53 11.29 132.71 11.29 129.88 11.29 127.06 11.29 124.24 11.29 124.24 14.12 127.06 14.12 129.88 14.12 132.71 14.12 135.53 14.12 138.35 14.12 141.18 14.12 144 14.12 144 11.29 144 8.47 141.18 8.47 141.18 11.29"/><polygon points="124.24 19.76 127.06 19.76 129.88 19.76 132.71 19.76 135.53 19.76 138.35 19.76 138.35 16.94 135.53 16.94 132.71 16.94 129.88 16.94 127.06 16.94 124.24 16.94 121.41 16.94 121.41 14.12 118.59 14.12 118.59 16.94 118.59 19.76 121.41 19.76 124.24 19.76"/><polygon points="141.18 19.76 141.18 22.59 138.35 22.59 135.53 22.59 132.71 22.59 129.88 22.59 127.06 22.59 124.24 22.59 121.41 22.59 118.59 22.59 118.59 25.41 121.41 25.41 124.24 25.41 127.06 25.41 129.88 25.41 132.71 25.41 135.53 25.41 138.35 25.41 141.18 25.41 144 25.41 144 22.59 144 19.76 144 16.94 141.18 16.94 141.18 19.76"/><polygon points="138.35 28.24 135.53 28.24 132.71 28.24 129.88 28.24 127.06 28.24 124.24 28.24 121.41 28.24 118.59 28.24 118.59 31.06 121.41 31.06 124.24 31.06 127.06 31.06 129.88 31.06 132.71 31.06 135.53 31.06 138.35 31.06 141.18 31.06 144 31.06 144 28.24 141.18 28.24 138.35 28.24"/><polygon points="243.07 28.49 240.25 28.49 237.43 28.49 234.6 28.49 231.78 28.49 228.96 28.49 226.13 28.49 223.31 28.49 220.49 28.49 217.66 28.49 214.84 28.49 212.01 28.49 209.19 28.49 206.37 28.49 203.54 28.49 200.72 28.49 197.9 28.49 195.07 28.49 192.25 28.49 189.43 28.49 186.6 28.49 183.78 28.49 180.96 28.49 178.13 28.49 175.31 28.49 172.49 28.49 169.66 28.49 166.84 28.49 164.01 28.49 161.19 28.49 158.37 28.49 155.54 28.49 152.72 28.49 149.9 28.49 147.07 28.49 144.25 28.49 144.25 31.31 147.07 31.31 149.9 31.31 152.72 31.31 155.54 31.31 158.37 31.31 161.19 31.31 164.01 31.31 166.84 31.31 169.66 31.31 172.49 31.31 175.31 31.31 178.13 31.31 180.96 31.31 183.78 31.31 186.6 31.31 189.43 31.31 192.25 31.31 195.07 31.31 197.9 31.31 200.72 31.31 203.54 31.31 206.37 31.31 209.19 31.31 212.01 31.31 214.84 31.31 217.66 31.31 220.49 31.31 223.31 31.31 226.13 31.31 228.96 31.31 231.78 31.31 234.6 31.31 237.43 31.31 240.25 31.31 243.07 31.31 245.9 31.31 245.9 34.13 245.9 36.96 245.9 39.78 245.9 42.6 245.9 45.43 245.9 48.25 245.9 51.07 245.9 53.9 245.9 56.72 245.9 59.54 245.9 62.37 245.9 65.19 245.9 68.01 245.9 70.84 245.9 73.66 245.9 76.49 245.9 79.31 245.9 82.13 245.9 84.96 245.9 87.78 245.9 90.6 245.9 93.43 245.9 96.25 245.9 99.07 245.9 101.9 245.9 104.72 245.9 107.54 248.72 107.54 248.72 104.72 248.72 101.9 248.72 99.07 248.72 96.25 248.72 93.43 248.72 90.6 248.72 87.78 248.72 84.96 248.72 82.13 248.72 79.31 248.72 76.49 248.72 73.66 248.72 70.84 248.72 68.01 248.72 65.19 248.72 62.37 248.72 59.54 248.72 56.72 248.72 53.9 248.72 51.07 248.72 48.25 248.72 45.43 248.72 42.6 248.72 39.78 248.72 36.96 248.72 34.13 248.72 31.31 248.72 28.49 245.9 28.49 243.07 28.49"/><polygon points="243.07 110.37 243.07 113.19 243.07 116.01 243.07 118.84 243.07 121.66 243.07 124.49 243.07 127.31 243.07 130.13 243.07 132.96 243.07 135.78 243.07 138.6 240.25 138.6 240.25 135.78 240.25 132.96 240.25 130.13 240.25 127.31 240.25 124.49 240.25 121.66 240.25 118.84 240.25 116.01 240.25 113.19 240.25 110.37 237.43 110.37 234.6 110.37 231.78 110.37 231.78 113.19 231.78 116.01 231.78 118.84 231.78 121.66 231.78 124.49 231.78 127.31 231.78 130.13 231.78 132.96 231.78 135.78 231.78 138.6 228.96 138.6 228.96 135.78 228.96 132.96 228.96 130.13 228.96 127.31 228.96 124.49 228.96 121.66 228.96 118.84 228.96 116.01 228.96 113.19 228.96 110.37 226.13 110.37 226.13 113.19 226.13 116.01 226.13 118.84 226.13 121.66 226.13 124.49 226.13 127.31 226.13 130.13 226.13 132.96 226.13 135.78 226.13 138.6 226.13 141.43 228.96 141.43 231.78 141.43 234.6 141.43 234.6 138.6 234.6 135.78 234.6 132.96 234.6 130.13 234.6 127.31 234.6 124.49 234.6 121.66 234.6 118.84 234.6 116.01 234.6 113.19 237.43 113.19 237.43 116.01 237.43 118.84 237.43 121.66 237.43 124.49 237.43 127.31 237.43 130.13 237.43 132.96 237.43 135.78 237.43 138.6 237.43 141.43 240.25 141.43 243.07 141.43 245.9 141.43 245.9 138.6 245.9 135.78 245.9 132.96 245.9 130.13 245.9 127.31 245.9 124.49 245.9 121.66 245.9 118.84 245.9 116.01 245.9 113.19 248.72 113.19 248.72 110.37 245.9 110.37 243.07 110.37"/><polygon points="217.66 110.37 214.84 110.37 212.01 110.37 209.19 110.37 206.37 110.37 206.37 113.19 209.19 113.19 212.01 113.19 214.84 113.19 217.66 113.19 220.49 113.19 220.49 116.01 220.49 118.84 217.66 118.84 214.84 118.84 212.01 118.84 209.19 118.84 206.37 118.84 206.37 121.66 206.37 124.49 206.37 127.31 209.19 127.31 212.01 127.31 214.84 127.31 217.66 127.31 220.49 127.31 220.49 130.13 217.66 130.13 214.84 130.13 212.01 130.13 209.19 130.13 206.37 130.13 206.37 132.96 206.37 135.78 206.37 138.6 209.19 138.6 212.01 138.6 214.84 138.6 217.66 138.6 220.49 138.6 220.49 141.43 223.31 141.43 223.31 138.6 223.31 135.78 220.49 135.78 217.66 135.78 214.84 135.78 212.01 135.78 209.19 135.78 209.19 132.96 212.01 132.96 214.84 132.96 217.66 132.96 220.49 132.96 223.31 132.96 223.31 130.13 223.31 127.31 223.31 124.49 220.49 124.49 217.66 124.49 214.84 124.49 212.01 124.49 209.19 124.49 209.19 121.66 212.01 121.66 214.84 121.66 217.66 121.66 220.49 121.66 223.31 121.66 223.31 118.84 223.31 116.01 223.31 113.19 223.31 110.37 220.49 110.37 217.66 110.37"/><polygon points="197.9 135.78 195.07 135.78 195.07 138.6 195.07 141.43 197.9 141.43 197.9 138.6 200.72 138.6 200.72 141.43 203.54 141.43 203.54 138.6 203.54 135.78 200.72 135.78 197.9 135.78"/><polygon points="197.9 130.13 195.07 130.13 195.07 132.96 197.9 132.96 200.72 132.96 203.54 132.96 203.54 130.13 200.72 130.13 197.9 130.13"/><polygon points="197.9 124.49 195.07 124.49 195.07 127.31 197.9 127.31 200.72 127.31 203.54 127.31 203.54 124.49 200.72 124.49 197.9 124.49"/><polygon points="197.9 118.84 197.9 116.01 195.07 116.01 195.07 118.84 195.07 121.66 197.9 121.66 200.72 121.66 203.54 121.66 203.54 118.84 200.72 118.84 197.9 118.84"/><polygon points="197.9 110.37 195.07 110.37 195.07 113.19 197.9 113.19 200.72 113.19 200.72 116.01 203.54 116.01 203.54 113.19 203.54 110.37 200.72 110.37 197.9 110.37"/><path d="M186.6,133h-2.82v8.47h8.47V133H186.6Zm2.83,5.64H186.6v-2.82h2.83Z"/><path d="M186.6,121.66h-2.82v8.47h8.47v-8.47H186.6Zm2.83,5.65H186.6v-2.82h2.83Z"/><path d="M186.6,110.37h-2.82v8.47h8.47v-8.47H186.6Zm2.83,5.64H186.6v-2.82h2.83Z"/><polygon points="178.13 113.19 178.13 116.01 178.13 118.84 178.13 121.66 178.13 124.49 178.13 127.31 178.13 130.13 178.13 132.96 178.13 135.78 178.13 138.6 175.31 138.6 175.31 141.43 178.13 141.43 180.96 141.43 180.96 138.6 180.96 135.78 180.96 132.96 180.96 130.13 180.96 127.31 180.96 124.49 180.96 121.66 180.96 118.84 180.96 116.01 180.96 113.19 180.96 110.37 178.13 110.37 178.13 113.19"/><polygon points="175.31 132.96 175.31 130.13 175.31 127.31 175.31 124.49 175.31 121.66 175.31 118.84 175.31 116.01 175.31 113.19 175.31 110.37 172.49 110.37 172.49 113.19 172.49 116.01 172.49 118.84 172.49 121.66 172.49 124.49 172.49 127.31 172.49 130.13 172.49 132.96 169.66 132.96 169.66 135.78 169.66 138.6 169.66 141.43 172.49 141.43 172.49 138.6 172.49 135.78 175.31 135.78 175.31 132.96"/><path d="M155.54,130.13H164V116H149.9v14.12h5.64Zm-2.82-5.64v-5.65h8.47v8.47h-8.47Z"/><polygon points="166.84 118.84 166.84 121.66 166.84 124.49 166.84 127.31 166.84 130.13 169.66 130.13 169.66 127.31 169.66 124.49 169.66 121.66 169.66 118.84 169.66 116.01 169.66 113.19 169.66 110.37 166.84 110.37 164.01 110.37 161.19 110.37 158.37 110.37 155.54 110.37 152.72 110.37 149.9 110.37 149.9 113.19 152.72 113.19 155.54 113.19 158.37 113.19 161.19 113.19 164.01 113.19 166.84 113.19 166.84 116.01 166.84 118.84"/><polygon points="161.19 132.96 158.37 132.96 155.54 132.96 152.72 132.96 149.9 132.96 147.07 132.96 147.07 130.13 147.07 127.31 147.07 124.49 147.07 121.66 147.07 118.84 147.07 116.01 147.07 113.19 147.07 110.37 144.25 110.37 144.25 113.19 144.25 116.01 144.25 118.84 144.25 121.66 144.25 124.49 144.25 127.31 144.25 130.13 144.25 132.96 144.25 135.78 147.07 135.78 149.9 135.78 152.72 135.78 155.54 135.78 158.37 135.78 161.19 135.78 164.01 135.78 166.84 135.78 166.84 132.96 164.01 132.96 161.19 132.96"/><polygon points="161.19 138.6 158.37 138.6 155.54 138.6 152.72 138.6 149.9 138.6 147.07 138.6 144.25 138.6 144.25 141.43 147.07 141.43 149.9 141.43 152.72 141.43 155.54 141.43 158.37 141.43 161.19 141.43 164.01 141.43 166.84 141.43 166.84 138.6 164.01 138.6 161.19 138.6"/><polygon points="141.18 135.53 141.18 132.71 141.18 129.88 141.18 127.06 141.18 124.24 141.18 121.41 141.18 118.59 141.18 115.76 141.18 112.94 141.18 110.12 138.35 110.12 138.35 112.94 138.35 115.76 138.35 118.59 138.35 121.41 138.35 124.24 138.35 127.06 138.35 129.88 138.35 132.71 138.35 135.53 138.35 138.35 138.35 141.18 141.18 141.18 144 141.18 144 138.35 141.18 138.35 141.18 135.53"/><polygon points="129.88 110.12 127.06 110.12 124.24 110.12 121.41 110.12 118.59 110.12 115.76 110.12 115.76 112.94 118.59 112.94 121.41 112.94 124.24 112.94 127.06 112.94 129.88 112.94 132.71 112.94 132.71 115.76 129.88 115.76 127.06 115.76 124.24 115.76 121.41 115.76 118.59 115.76 115.76 115.76 115.76 118.59 115.76 121.41 115.76 124.24 118.59 124.24 121.41 124.24 124.24 124.24 127.06 124.24 129.88 124.24 132.71 124.24 132.71 127.06 129.88 127.06 127.06 127.06 124.24 127.06 121.41 127.06 118.59 127.06 115.76 127.06 115.76 129.88 115.76 132.71 115.76 135.53 118.59 135.53 121.41 135.53 124.24 135.53 127.06 135.53 129.88 135.53 132.71 135.53 132.71 138.35 129.88 138.35 127.06 138.35 124.24 138.35 121.41 138.35 118.59 138.35 115.76 138.35 115.76 141.18 118.59 141.18 121.41 141.18 124.24 141.18 127.06 141.18 129.88 141.18 132.71 141.18 135.53 141.18 135.53 138.35 135.53 135.53 135.53 132.71 132.71 132.71 129.88 132.71 127.06 132.71 124.24 132.71 121.41 132.71 118.59 132.71 118.59 129.88 121.41 129.88 124.24 129.88 127.06 129.88 129.88 129.88 132.71 129.88 135.53 129.88 135.53 127.06 135.53 124.24 135.53 121.41 132.71 121.41 129.88 121.41 127.06 121.41 124.24 121.41 121.41 121.41 118.59 121.41 118.59 118.59 121.41 118.59 124.24 118.59 127.06 118.59 129.88 118.59 132.71 118.59 135.53 118.59 135.53 115.76 135.53 112.94 135.53 110.12 132.71 110.12 129.88 110.12"/><polygon points="110.12 112.94 110.12 115.76 110.12 118.59 110.12 121.41 110.12 124.24 110.12 127.06 110.12 129.88 110.12 132.71 110.12 135.53 110.12 138.35 110.12 141.18 112.94 141.18 112.94 138.35 112.94 135.53 112.94 132.71 112.94 129.88 112.94 127.06 112.94 124.24 112.94 121.41 112.94 118.59 112.94 115.76 112.94 112.94 112.94 110.12 110.12 110.12 110.12 112.94"/><polygon points="104.47 132.71 104.47 135.53 104.47 138.35 101.65 138.35 98.82 138.35 96 138.35 96 135.53 96 132.71 96 129.88 96 127.06 93.18 127.06 93.18 129.88 93.18 132.71 93.18 135.53 93.18 138.35 93.18 141.18 96 141.18 98.82 141.18 101.65 141.18 104.47 141.18 107.29 141.18 107.29 138.35 107.29 135.53 107.29 132.71 107.29 129.88 104.47 129.88 104.47 132.71"/><polygon points="98.82 129.88 98.82 132.71 98.82 135.53 101.65 135.53 101.65 132.71 101.65 129.88 101.65 127.06 101.65 124.24 101.65 121.41 98.82 121.41 96 121.41 93.18 121.41 90.35 121.41 90.35 124.24 93.18 124.24 96 124.24 98.82 124.24 98.82 127.06 98.82 129.88"/><polygon points="101.65 115.76 98.82 115.76 96 115.76 93.18 115.76 90.35 115.76 90.35 118.59 93.18 118.59 96 118.59 98.82 118.59 101.65 118.59 104.47 118.59 104.47 121.41 104.47 124.24 104.47 127.06 107.29 127.06 107.29 124.24 107.29 121.41 107.29 118.59 107.29 115.76 104.47 115.76 101.65 115.76"/><polygon points="101.65 110.12 98.82 110.12 96 110.12 93.18 110.12 90.35 110.12 90.35 112.94 93.18 112.94 96 112.94 98.82 112.94 101.65 112.94 104.47 112.94 107.29 112.94 107.29 110.12 104.47 110.12 101.65 110.12"/><polygon points="81.88 127.06 79.06 127.06 76.24 127.06 73.41 127.06 70.59 127.06 67.76 127.06 64.94 127.06 62.12 127.06 59.29 127.06 56.47 127.06 53.65 127.06 50.82 127.06 48 127.06 45.18 127.06 42.35 127.06 39.53 127.06 39.53 129.88 39.53 132.71 36.71 132.71 33.88 132.71 33.88 135.53 33.88 138.35 31.06 138.35 28.24 138.35 25.41 138.35 22.59 138.35 19.76 138.35 16.94 138.35 14.12 138.35 11.29 138.35 11.29 135.53 11.29 132.71 8.47 132.71 5.65 132.71 2.82 132.71 2.82 135.53 5.65 135.53 8.47 135.53 8.47 138.35 8.47 141.18 11.29 141.18 14.12 141.18 16.94 141.18 19.76 141.18 22.59 141.18 25.41 141.18 28.24 141.18 31.06 141.18 33.88 141.18 36.71 141.18 36.71 138.35 36.71 135.53 39.53 135.53 42.35 135.53 42.35 132.71 42.35 129.88 45.18 129.88 48 129.88 50.82 129.88 53.65 129.88 56.47 129.88 59.29 129.88 62.12 129.88 64.94 129.88 67.76 129.88 70.59 129.88 73.41 129.88 76.24 129.88 79.06 129.88 81.88 129.88 84.71 129.88 84.71 132.71 81.88 132.71 79.06 132.71 76.24 132.71 73.41 132.71 70.59 132.71 67.76 132.71 64.94 132.71 62.12 132.71 59.29 132.71 56.47 132.71 53.65 132.71 50.82 132.71 48 132.71 45.18 132.71 45.18 135.53 45.18 138.35 45.18 141.18 48 141.18 50.82 141.18 53.65 141.18 56.47 141.18 59.29 141.18 62.12 141.18 64.94 141.18 67.76 141.18 70.59 141.18 73.41 141.18 76.24 141.18 79.06 141.18 81.88 141.18 84.71 141.18 87.53 141.18 87.53 138.35 84.71 138.35 81.88 138.35 79.06 138.35 76.24 138.35 73.41 138.35 70.59 138.35 67.76 138.35 64.94 138.35 62.12 138.35 59.29 138.35 56.47 138.35 53.65 138.35 50.82 138.35 48 138.35 48 135.53 50.82 135.53 53.65 135.53 56.47 135.53 59.29 135.53 62.12 135.53 64.94 135.53 67.76 135.53 70.59 135.53 73.41 135.53 76.24 135.53 79.06 135.53 81.88 135.53 84.71 135.53 87.53 135.53 87.53 132.71 87.53 129.88 87.53 127.06 84.71 127.06 81.88 127.06"/><polygon points="19.76 135.53 22.59 135.53 25.41 135.53 28.24 135.53 31.06 135.53 31.06 132.71 28.24 132.71 25.41 132.71 22.59 132.71 19.76 132.71 16.94 132.71 14.12 132.71 14.12 135.53 16.94 135.53 19.76 135.53"/><polygon points="81.88 121.41 79.06 121.41 76.24 121.41 73.41 121.41 70.59 121.41 67.76 121.41 64.94 121.41 62.12 121.41 59.29 121.41 56.47 121.41 53.65 121.41 50.82 121.41 48 121.41 45.18 121.41 42.35 121.41 39.53 121.41 36.71 121.41 33.88 121.41 33.88 124.24 33.88 127.06 31.06 127.06 28.24 127.06 25.41 127.06 22.59 127.06 19.76 127.06 16.94 127.06 14.12 127.06 11.29 127.06 11.29 124.24 11.29 121.41 8.47 121.41 5.65 121.41 2.82 121.41 2.82 124.24 5.65 124.24 8.47 124.24 8.47 127.06 8.47 129.88 11.29 129.88 14.12 129.88 16.94 129.88 19.76 129.88 22.59 129.88 25.41 129.88 28.24 129.88 31.06 129.88 33.88 129.88 36.71 129.88 36.71 127.06 36.71 124.24 39.53 124.24 42.35 124.24 45.18 124.24 48 124.24 50.82 124.24 53.65 124.24 56.47 124.24 59.29 124.24 62.12 124.24 64.94 124.24 67.76 124.24 70.59 124.24 73.41 124.24 76.24 124.24 79.06 124.24 81.88 124.24 84.71 124.24 87.53 124.24 87.53 121.41 84.71 121.41 81.88 121.41"/><polygon points="81.88 115.76 79.06 115.76 76.24 115.76 73.41 115.76 70.59 115.76 67.76 115.76 64.94 115.76 62.12 115.76 59.29 115.76 56.47 115.76 53.65 115.76 50.82 115.76 48 115.76 45.18 115.76 42.35 115.76 39.53 115.76 36.71 115.76 33.88 115.76 31.06 115.76 28.24 115.76 28.24 118.59 28.24 121.41 25.41 121.41 22.59 121.41 19.76 121.41 16.94 121.41 16.94 118.59 16.94 115.76 14.12 115.76 11.29 115.76 8.47 115.76 5.65 115.76 2.82 115.76 2.82 118.59 5.65 118.59 8.47 118.59 11.29 118.59 14.12 118.59 14.12 121.41 14.12 124.24 16.94 124.24 19.76 124.24 22.59 124.24 25.41 124.24 28.24 124.24 31.06 124.24 31.06 121.41 31.06 118.59 33.88 118.59 36.71 118.59 39.53 118.59 42.35 118.59 45.18 118.59 48 118.59 50.82 118.59 53.65 118.59 56.47 118.59 59.29 118.59 62.12 118.59 64.94 118.59 67.76 118.59 70.59 118.59 73.41 118.59 76.24 118.59 79.06 118.59 81.88 118.59 84.71 118.59 87.53 118.59 87.53 115.76 84.71 115.76 81.88 115.76"/><polygon points="81.88 110.12 79.06 110.12 76.24 110.12 73.41 110.12 70.59 110.12 67.76 110.12 64.94 110.12 62.12 110.12 59.29 110.12 56.47 110.12 53.65 110.12 50.82 110.12 48 110.12 45.18 110.12 42.35 110.12 39.53 110.12 36.71 110.12 33.88 110.12 31.06 110.12 28.24 110.12 25.41 110.12 22.59 110.12 19.76 110.12 16.94 110.12 14.12 110.12 11.29 110.12 8.47 110.12 5.65 110.12 5.65 107.29 5.65 104.47 5.65 101.65 5.65 98.82 5.65 96 5.65 93.18 5.65 90.35 5.65 87.53 5.65 84.71 5.65 81.88 5.65 79.06 5.65 76.24 5.65 73.41 5.65 70.59 5.65 67.76 5.65 64.94 5.65 62.12 5.65 59.29 5.65 56.47 5.65 53.65 5.65 50.82 5.65 48 5.65 45.18 5.65 42.35 2.82 42.35 2.82 45.18 2.82 48 2.82 50.82 2.82 53.65 2.82 56.47 2.82 59.29 2.82 62.12 2.82 64.94 2.82 67.76 2.82 70.59 2.82 73.41 2.82 76.24 2.82 79.06 2.82 81.88 2.82 84.71 2.82 87.53 2.82 90.35 2.82 93.18 2.82 96 2.82 98.82 2.82 101.65 2.82 104.47 2.82 107.29 2.82 110.12 2.82 112.94 5.65 112.94 8.47 112.94 11.29 112.94 14.12 112.94 16.94 112.94 19.76 112.94 22.59 112.94 25.41 112.94 28.24 112.94 31.06 112.94 33.88 112.94 36.71 112.94 39.53 112.94 42.35 112.94 45.18 112.94 48 112.94 50.82 112.94 53.65 112.94 56.47 112.94 59.29 112.94 62.12 112.94 64.94 112.94 67.76 112.94 70.59 112.94 73.41 112.94 76.24 112.94 79.06 112.94 81.88 112.94 84.71 112.94 87.53 112.94 87.53 110.12 84.71 110.12 81.88 110.12"/><polygon points="115.76 28.24 115.76 25.41 115.76 22.59 115.76 19.76 115.76 16.94 115.76 14.12 115.76 11.29 115.76 8.47 115.76 5.65 115.76 2.82 112.94 2.82 110.12 2.82 107.29 2.82 104.47 2.82 101.65 2.82 98.82 2.82 96 2.82 93.18 2.82 93.18 5.65 93.18 8.47 93.18 11.29 93.18 14.12 93.18 16.94 93.18 19.76 93.18 22.59 93.18 25.41 96 25.41 98.82 25.41 101.65 25.41 104.47 25.41 107.29 25.41 110.12 25.41 110.12 22.59 110.12 19.76 110.12 16.94 110.12 14.12 110.12 11.29 110.12 8.47 107.29 8.47 104.47 8.47 101.65 8.47 98.82 8.47 98.82 11.29 98.82 14.12 98.82 16.94 98.82 19.76 101.65 19.76 104.47 19.76 104.47 16.94 101.65 16.94 101.65 14.12 101.65 11.29 104.47 11.29 107.29 11.29 107.29 14.12 107.29 16.94 107.29 19.76 107.29 22.59 104.47 22.59 101.65 22.59 98.82 22.59 96 22.59 96 19.76 96 16.94 96 14.12 96 11.29 96 8.47 96 5.65 98.82 5.65 101.65 5.65 104.47 5.65 107.29 5.65 110.12 5.65 112.94 5.65 112.94 8.47 112.94 11.29 112.94 14.12 112.94 16.94 112.94 19.76 112.94 22.59 112.94 25.41 112.94 28.24 110.12 28.24 107.29 28.24 104.47 28.24 101.65 28.24 98.82 28.24 96 28.24 93.18 28.24 90.35 28.24 90.35 25.41 90.35 22.59 90.35 19.76 90.35 16.94 90.35 14.12 90.35 11.29 90.35 8.47 90.35 5.65 90.35 2.82 87.53 2.82 87.53 5.65 87.53 8.47 87.53 11.29 87.53 14.12 87.53 16.94 87.53 19.76 87.53 22.59 87.53 25.41 87.53 28.24 87.53 31.06 90.35 31.06 93.18 31.06 96 31.06 98.82 31.06 101.65 31.06 104.47 31.06 107.29 31.06 110.12 31.06 112.94 31.06 115.76 31.06 115.76 28.24"/><polygon points="64.94 33.88 67.76 33.88 70.59 33.88 73.41 33.88 76.24 33.88 79.06 33.88 81.88 33.88 84.71 33.88 84.71 31.06 81.88 31.06 79.06 31.06 76.24 31.06 73.41 31.06 70.59 31.06 67.76 31.06 64.94 31.06 62.12 31.06 59.29 31.06 59.29 33.88 62.12 33.88 64.94 33.88"/><polygon points="64.94 28.24 67.76 28.24 70.59 28.24 73.41 28.24 76.24 28.24 79.06 28.24 81.88 28.24 84.71 28.24 84.71 25.41 81.88 25.41 79.06 25.41 76.24 25.41 73.41 25.41 70.59 25.41 67.76 25.41 64.94 25.41 62.12 25.41 59.29 25.41 59.29 28.24 62.12 28.24 64.94 28.24"/><polygon points="64.94 22.59 67.76 22.59 70.59 22.59 73.41 22.59 76.24 22.59 79.06 22.59 81.88 22.59 84.71 22.59 84.71 19.76 84.71 16.94 84.71 14.12 84.71 11.29 84.71 8.47 84.71 5.65 81.88 5.65 79.06 5.65 76.24 5.65 73.41 5.65 70.59 5.65 67.76 5.65 64.94 5.65 62.12 5.65 62.12 2.82 59.29 2.82 59.29 5.65 59.29 8.47 62.12 8.47 64.94 8.47 67.76 8.47 70.59 8.47 73.41 8.47 76.24 8.47 79.06 8.47 81.88 8.47 81.88 11.29 81.88 14.12 81.88 16.94 81.88 19.76 79.06 19.76 76.24 19.76 73.41 19.76 70.59 19.76 67.76 19.76 64.94 19.76 62.12 19.76 62.12 16.94 62.12 14.12 64.94 14.12 67.76 14.12 70.59 14.12 73.41 14.12 76.24 14.12 76.24 16.94 79.06 16.94 79.06 14.12 79.06 11.29 76.24 11.29 73.41 11.29 70.59 11.29 67.76 11.29 64.94 11.29 62.12 11.29 59.29 11.29 59.29 14.12 59.29 16.94 59.29 19.76 59.29 22.59 62.12 22.59 64.94 22.59"/><polygon points="45.18 48 42.35 48 42.35 50.82 45.18 50.82 48 50.82 50.82 50.82 50.82 48 48 48 45.18 48"/><polygon points="50.82 42.35 48 42.35 45.18 42.35 42.35 42.35 39.53 42.35 39.53 45.18 42.35 45.18 45.18 45.18 48 45.18 50.82 45.18 50.82 42.35"/><polygon points="42.35 36.71 39.53 36.71 36.71 36.71 36.71 39.53 39.53 39.53 42.35 39.53 45.18 39.53 48 39.53 50.82 39.53 50.82 36.71 50.82 33.88 50.82 31.06 50.82 28.24 50.82 25.41 50.82 22.59 50.82 19.76 50.82 16.94 50.82 14.12 50.82 11.29 50.82 8.47 50.82 5.65 53.65 5.65 53.65 8.47 53.65 11.29 53.65 14.12 53.65 16.94 53.65 19.76 53.65 22.59 53.65 25.41 53.65 28.24 53.65 31.06 53.65 33.88 53.65 36.71 53.65 39.53 56.47 39.53 56.47 36.71 56.47 33.88 56.47 31.06 56.47 28.24 56.47 25.41 56.47 22.59 56.47 19.76 56.47 16.94 56.47 14.12 56.47 11.29 56.47 8.47 56.47 5.65 56.47 2.82 53.65 2.82 50.82 2.82 48 2.82 48 5.65 48 8.47 48 11.29 48 14.12 48 16.94 48 19.76 48 22.59 48 25.41 48 28.24 48 31.06 48 33.88 48 36.71 45.18 36.71 42.35 36.71"/><polygon points="8.47 14.12 11.29 14.12 14.12 14.12 16.94 14.12 16.94 11.29 14.12 11.29 11.29 11.29 8.47 11.29 5.65 11.29 5.65 8.47 5.65 5.65 5.65 2.82 2.82 2.82 2.82 5.65 2.82 8.47 2.82 11.29 2.82 14.12 5.65 14.12 8.47 14.12"/><polygon points="5.65 22.59 5.65 19.76 8.47 19.76 11.29 19.76 14.12 19.76 16.94 19.76 16.94 16.94 14.12 16.94 11.29 16.94 8.47 16.94 5.65 16.94 2.82 16.94 2.82 19.76 2.82 22.59 2.82 25.41 5.65 25.41 5.65 22.59"/><polygon points="5.65 36.71 5.65 33.88 5.65 31.06 8.47 31.06 11.29 31.06 14.12 31.06 16.94 31.06 16.94 28.24 16.94 25.41 19.76 25.41 22.59 25.41 25.41 25.41 28.24 25.41 31.06 25.41 33.88 25.41 36.71 25.41 39.53 25.41 39.53 22.59 36.71 22.59 33.88 22.59 31.06 22.59 28.24 22.59 25.41 22.59 22.59 22.59 19.76 22.59 16.94 22.59 14.12 22.59 14.12 25.41 14.12 28.24 11.29 28.24 8.47 28.24 5.65 28.24 2.82 28.24 2.82 31.06 2.82 33.88 2.82 36.71 2.82 39.53 5.65 39.53 5.65 36.71"/><polygon points="25.41 19.76 28.24 19.76 31.06 19.76 33.88 19.76 36.71 19.76 39.53 19.76 42.35 19.76 42.35 22.59 42.35 25.41 42.35 28.24 39.53 28.24 36.71 28.24 33.88 28.24 31.06 28.24 28.24 28.24 25.41 28.24 22.59 28.24 19.76 28.24 19.76 31.06 22.59 31.06 25.41 31.06 28.24 31.06 31.06 31.06 33.88 31.06 36.71 31.06 39.53 31.06 42.35 31.06 45.18 31.06 45.18 28.24 45.18 25.41 45.18 22.59 45.18 19.76 45.18 16.94 42.35 16.94 39.53 16.94 36.71 16.94 33.88 16.94 31.06 16.94 28.24 16.94 25.41 16.94 22.59 16.94 22.59 14.12 25.41 14.12 28.24 14.12 31.06 14.12 33.88 14.12 36.71 14.12 39.53 14.12 42.35 14.12 45.18 14.12 45.18 11.29 45.18 8.47 45.18 5.65 42.35 5.65 39.53 5.65 36.71 5.65 33.88 5.65 31.06 5.65 28.24 5.65 25.41 5.65 22.59 5.65 22.59 2.82 19.76 2.82 19.76 5.65 19.76 8.47 22.59 8.47 25.41 8.47 28.24 8.47 31.06 8.47 33.88 8.47 36.71 8.47 39.53 8.47 42.35 8.47 42.35 11.29 39.53 11.29 36.71 11.29 33.88 11.29 31.06 11.29 28.24 11.29 25.41 11.29 22.59 11.29 19.76 11.29 19.76 14.12 19.76 16.94 19.76 19.76 22.59 19.76 25.41 19.76"/><polygon points="55.33 50.06 55.33 52.98 55.33 55.91 52.67 55.91 52.67 58.83 52.67 61.76 50 61.76 50 64.69 50 67.61 50 70.54 50 73.46 47.33 73.46 47.33 76.39 44.67 76.39 44.67 73.46 42 73.46 42 70.54 42 67.61 42 64.69 42 61.76 39.33 61.76 39.33 58.83 39.33 55.91 36.67 55.91 36.67 52.98 36.67 50.06 36.67 47.13 34 47.13 34 44.2 34 41.28 31.33 41.28 31.33 38.35 28.66 38.35 26 38.35 23.33 38.35 20.66 38.35 18 38.35 15.33 38.35 12.67 38.35 10 38.35 10 41.28 10 44.2 10 47.13 10 50.06 10 52.98 10 55.91 10 58.83 10 61.76 10 64.69 10 67.61 10 70.54 10 73.46 10 76.39 10 79.32 10 82.24 10 85.17 10 88.09 10 91.02 10 93.95 10 96.87 10 99.8 10 102.72 10 105.65 12.67 105.65 15.33 105.65 18 105.65 20.66 105.65 23.33 105.65 26 105.65 28.66 105.65 28.66 102.72 28.66 99.8 28.66 96.87 28.66 93.95 28.66 91.02 28.66 88.09 28.66 85.17 28.66 82.24 28.66 79.32 28.66 76.39 28.66 73.46 31.33 73.46 31.33 76.39 31.33 79.32 31.33 82.24 34 82.24 34 85.17 34 88.09 34 91.02 36.67 91.02 36.67 93.95 36.67 96.87 39.33 96.87 39.33 99.8 39.33 102.72 39.33 105.65 42 105.65 44.67 105.65 47.33 105.65 50 105.65 52.67 105.65 52.67 102.72 52.67 99.8 52.67 96.87 55.33 96.87 55.33 93.95 55.33 91.02 58 91.02 58 88.09 58 85.17 58 82.24 60.67 82.24 60.67 79.32 60.67 76.39 60.67 73.46 63.34 73.46 63.34 76.39 63.34 79.32 63.34 82.24 63.34 85.17 63.34 88.09 63.34 91.02 63.34 93.95 63.34 96.87 63.34 99.8 63.34 102.72 63.34 105.65 66 105.65 68.67 105.65 71.33 105.65 74 105.65 76.67 105.65 79.33 105.65 82 105.65 82 102.72 82 99.8 82 96.87 82 93.95 82 91.02 82 88.09 82 85.17 82 82.24 82 79.32 82 76.39 82 73.46 82 70.54 82 67.61 82 64.69 82 61.76 82 58.83 82 55.91 82 52.98 82 50.06 82 47.13 82 44.2 82 41.28 82 38.35 79.33 38.35 76.67 38.35 74 38.35 71.33 38.35 68.67 38.35 66 38.35 63.34 38.35 60.67 38.35 60.67 41.28 58 41.28 58 44.2 58 47.13 55.33 47.13 55.33 50.06"/><polygon points="231.34 108 234 108 236.67 108 239.33 108 242 108 242 104.87 242 101.74 242 98.61 242 95.48 242 92.35 242 89.22 242 86.09 242 82.96 242 79.83 242 76.69 242 73.57 242 70.43 242 67.31 242 64.17 242 61.04 242 57.91 242 54.78 242 51.65 242 48.52 242 45.39 242 42.26 242 39.13 242 36 239.33 36 236.67 36 234 36 231.34 36 228.67 36 226 36 223.34 36 220.67 36 220.67 39.13 218 39.13 218 42.26 218 45.39 215.33 45.39 215.33 48.52 215.33 51.65 215.33 54.78 212.67 54.78 212.67 57.91 212.67 61.04 210 61.04 210 64.17 210 67.31 210 70.43 210 73.57 207.33 73.57 207.33 76.69 204.67 76.69 204.67 73.57 202 73.57 202 70.43 202 67.31 202 64.17 202 61.04 199.33 61.04 199.33 57.91 199.33 54.78 196.67 54.78 196.67 51.65 196.67 48.52 196.67 45.39 194 45.39 194 42.26 194 39.13 191.33 39.13 191.33 36 188.66 36 186 36 183.33 36 180.66 36 178 36 175.33 36 172.67 36 170 36 170 39.13 170 42.26 170 45.39 170 48.52 170 51.65 170 54.78 170 57.91 170 61.04 170 64.17 170 67.31 170 70.43 170 73.57 170 76.69 170 79.83 170 82.96 170 86.09 170 89.22 170 92.35 170 95.48 170 98.61 170 101.74 170 104.87 170 108 172.67 108 175.33 108 178 108 180.66 108 183.33 108 186 108 188.66 108 188.66 104.87 188.66 101.74 188.66 98.61 188.66 95.48 188.66 92.35 188.66 89.22 188.66 86.09 188.66 82.96 188.66 79.83 188.66 76.69 188.66 73.57 191.33 73.57 191.33 76.69 191.33 79.83 191.33 82.96 194 82.96 194 86.09 194 89.22 194 92.35 196.67 92.35 196.67 95.48 196.67 98.61 199.33 98.61 199.33 101.74 199.33 104.87 199.33 108 202 108 204.67 108 207.33 108 210 108 212.67 108 212.67 104.87 212.67 101.74 212.67 98.61 215.33 98.61 215.33 95.48 215.33 92.35 218 92.35 218 89.22 218 86.09 218 82.96 220.67 82.96 220.67 79.83 220.67 76.69 220.67 73.57 223.34 73.57 223.34 76.69 223.34 79.83 223.34 82.96 223.34 86.09 223.34 89.22 223.34 92.35 223.34 95.48 223.34 98.61 223.34 101.74 223.34 104.87 223.34 108 226 108 228.67 108 231.34 108"/></svg>